<svg xmlns="http://www.w3.org/2000/svg" xmlns:xlink="http://www.w3.org/1999/xlink" width="1000" zoomAndPan="magnify" viewBox="0 0 750 749.999995" height="1000" preserveAspectRatio="xMidYMid meet" version="1.0"><defs><clipPath id="bbff35e3c6"><path d="M 64.125 62.421875 L 685.875 62.421875 L 685.875 687.921875 L 64.125 687.921875 Z M 64.125 62.421875 " clip-rule="nonzero"/></clipPath></defs><g clip-path="url(#bbff35e3c6)"><path fill="#07cafe" d="M 384.683594 67.195312 L 368.878906 68.527344 L 353.070312 69.863281 L 358.507812 70.25 L 384.683594 67.195312 M 421.382812 101.234375 L 419.527344 101.359375 L 419.527344 101.363281 L 419.914062 101.441406 L 421.382812 101.234375 M 412.6875 101.828125 L 392.191406 103.234375 L 399.941406 104.246094 L 414.203125 102.242188 L 412.6875 101.828125 M 363.40625 109.210938 L 364.003906 109.289062 L 361.84375 109.59375 L 363.40625 109.210938 M 338.332031 104.785156 L 328.828125 107.707031 L 319.328125 110.632812 L 324.816406 106.636719 L 338.332031 104.785156 M 343.3125 114.527344 L 342.648438 114.542969 L 340.332031 115.324219 C 341.328125 115.058594 342.320312 114.792969 343.3125 114.527344 M 394.769531 113.285156 L 415.808594 116.015625 L 416.730469 117.015625 L 394.789062 113.617188 L 372.785156 115.675781 L 350.527344 114.355469 L 394.769531 113.285156 M 440.738281 119.535156 L 441.019531 119.632812 L 441.296875 119.730469 L 441.175781 119.726562 L 441.175781 119.730469 C 441.03125 119.664062 440.886719 119.597656 440.738281 119.535156 M 375.832031 62.839844 L 436.164062 77.0625 L 468.011719 81.664062 L 504.976562 98.625 L 549.375 121.429688 L 494.621094 88.257812 L 478.136719 81.371094 L 424.898438 65.28125 L 375.832031 62.839844 M 443.5625 120.785156 L 445.777344 121.3125 L 446.804688 121.679688 L 444.910156 121.382812 L 443.5625 120.785156 M 419.914062 101.441406 L 414.203125 102.242188 L 490.359375 122.917969 L 487.285156 121.179688 L 444.457031 106.390625 L 419.914062 101.441406 M 361.128906 108.914062 L 363.296875 109.195312 L 361.722656 109.609375 L 358.949219 109.996094 L 325.613281 118.4375 L 361.179688 109.753906 L 343.3125 114.527344 L 348.832031 114.394531 L 330.3125 119.640625 L 327.0625 119.945312 L 324.222656 121.226562 L 322.285156 121.402344 L 340.332031 115.320312 L 319.15625 120.976562 L 318.054688 121.785156 L 302.875 123.152344 L 306.539062 121.527344 L 361.128906 108.914062 M 315.398438 123.722656 L 315.234375 123.839844 L 315.074219 123.960938 C 314.277344 124.183594 313.484375 124.410156 312.6875 124.632812 C 313.589844 124.328125 314.496094 124.023438 315.398438 123.722656 M 490.359375 122.917969 L 491.992188 123.839844 L 493.621094 124.761719 L 494.238281 123.96875 L 490.359375 122.917969 M 379.777344 77.238281 L 313.523438 95.148438 L 256.457031 121.84375 L 252.253906 124.851562 L 258.078125 122.503906 L 260.734375 120.601562 L 319.546875 94.066406 L 379.089844 78.574219 L 379.777344 77.238281 M 285.648438 100.59375 L 269.363281 102.515625 L 224.503906 126.445312 L 275.941406 102.859375 L 233.367188 124.460938 L 285.648438 100.59375 M 272.164062 121.871094 L 269.757812 124.417969 L 267.355469 126.96875 L 255.851562 130.6875 C 261.289062 127.75 266.726562 124.808594 272.164062 121.871094 M 297.46875 129.761719 L 287.003906 134.148438 L 289.214844 132.539062 L 297.46875 129.761719 M 481.125 133.808594 L 482.441406 134.472656 L 483.761719 135.136719 C 484.546875 135.28125 485.332031 135.425781 486.117188 135.570312 C 484.453125 134.984375 482.789062 134.394531 481.125 133.808594 M 502.078125 138.132812 L 512.714844 140.476562 L 503.046875 138.695312 L 502.078125 138.132812 M 274.460938 143.273438 L 273.660156 143.855469 L 272.863281 144.4375 C 273.707031 144.054688 274.550781 143.675781 275.394531 143.292969 L 275.394531 143.296875 C 275.082031 143.289062 274.769531 143.28125 274.460938 143.273438 M 465.316406 130.027344 L 478.902344 133.023438 L 481.125 133.808594 L 480.082031 133.28125 L 489.386719 135.332031 L 491.0625 136.484375 L 486.117188 135.570312 L 493.574219 138.207031 L 503.925781 145.3125 L 497.53125 142.085938 L 493.175781 139.078125 L 495.125 140.871094 L 483.761719 135.136719 L 467.894531 132.230469 L 463.410156 130.042969 L 465.316406 130.027344 M 573.148438 146.824219 L 573.210938 146.871094 L 573.273438 146.921875 L 573.222656 146.863281 L 573.148438 146.824219 M 555.605469 144.441406 L 555.078125 144.496094 L 554.554688 144.550781 L 561.554688 150.054688 C 559.574219 148.183594 557.589844 146.3125 555.605469 144.441406 M 550.699219 144.949219 L 554.121094 148.078125 L 557.539062 151.207031 C 554.945312 149.152344 552.351562 147.101562 549.757812 145.046875 L 550.699219 144.949219 M 310.914062 126.992188 L 310.019531 127.644531 L 275.394531 143.292969 L 285.195312 143.492188 L 284.101562 146.191406 L 264.929688 150.210938 L 272.863281 144.4375 L 263.597656 148.625 L 261.0625 151.019531 L 260.832031 151.066406 L 259.554688 151.757812 L 270.175781 143.1875 L 274.460938 143.277344 L 285.394531 135.320312 L 310.914062 126.992188 M 240.953125 134.785156 L 237.46875 136.355469 L 233.980469 137.925781 C 226.625 143.1875 219.265625 148.453125 211.90625 153.71875 L 225.980469 145.523438 L 240.953125 134.785156 M 211.90625 153.71875 L 204.519531 158.019531 L 202.601562 159.988281 L 202.695312 161.144531 L 205.816406 158.078125 L 211.90625 153.71875 M 527.210938 121.074219 L 578.933594 162.6875 L 579.277344 162.761719 L 556.125 136.132812 L 527.210938 121.074219 M 251.804688 159.757812 L 248.761719 162.628906 L 245.722656 165.503906 C 245.039062 165.824219 244.355469 166.148438 243.675781 166.46875 L 245.777344 164.144531 L 251.804688 159.757812 M 202.695312 161.144531 L 194.070312 169.628906 C 197.03125 167.835938 199.992188 166.046875 202.953125 164.253906 C 202.867188 163.21875 202.78125 162.179688 202.695312 161.144531 M 208.082031 154.367188 L 194.898438 164.476562 L 187.433594 173.644531 L 191.957031 170.90625 L 202.601562 159.988281 L 202.535156 159.175781 L 204.519531 158.019531 L 208.082031 154.367188 M 220.222656 167.726562 L 215.667969 172.085938 L 211.109375 176.445312 L 216.109375 170.636719 L 220.222656 167.726562 M 573.273438 146.921875 L 592.476562 168.25 L 611.683594 189.578125 C 605.722656 180.753906 599.765625 171.933594 593.804688 163.113281 L 573.273438 146.921875 M 500.296875 186.855469 L 502.71875 188.144531 L 506.84375 192.5625 L 504.882812 191.324219 L 500.296875 186.855469 M 207.726562 134.03125 L 189.628906 145.6875 L 148.113281 193.992188 L 181.328125 156.410156 L 211.660156 136.683594 L 207.726562 134.03125 M 556.023438 196.371094 L 556.929688 197.074219 L 557.835938 197.773438 L 556.144531 196.589844 L 556.023438 196.371094 M 603.480469 190.605469 L 609.015625 198.121094 L 614.546875 205.640625 L 612.671875 201.171875 L 603.480469 190.605469 M 575.714844 178.417969 L 577.453125 184.617188 L 577.398438 184.871094 L 575.929688 183.394531 L 582.929688 200.007812 L 589.234375 205.796875 L 575.714844 178.417969 M 187.574219 207.148438 L 186.980469 208.1875 L 186.921875 208.222656 L 186.921875 208.226562 L 187.574219 207.148438 M 512.234375 176.957031 L 528.988281 191.25 L 545.746094 205.542969 L 547.644531 208.640625 L 519.824219 185.496094 L 512.234375 176.957031 M 570.589844 169.855469 L 590.519531 198.917969 L 597.488281 208.964844 C 594.214844 201.179688 590.9375 193.394531 587.660156 185.605469 L 570.589844 169.855469 M 594.773438 193.398438 L 600.480469 201.871094 L 606.191406 210.34375 L 602.039062 203.320312 L 594.773438 193.398438 M 589.695312 214.332031 L 589.707031 214.355469 L 589.71875 214.382812 C 589.808594 214.464844 589.894531 214.546875 589.980469 214.628906 L 589.695312 214.332031 M 549.625 215.855469 L 549.773438 216.101562 L 549.921875 216.34375 L 549.675781 215.890625 L 549.625 215.855469 M 229.855469 199.550781 L 228.8125 200.074219 L 227.773438 200.601562 C 221.339844 206.3125 214.90625 212.023438 208.472656 217.734375 C 214.265625 213.390625 220.058594 209.042969 225.855469 204.699219 L 229.855469 199.550781 M 399.148438 230.289062 L 398.160156 230.453125 L 397.175781 230.613281 L 397.175781 230.617188 L 397.527344 230.351562 C 398.066406 230.328125 398.605469 230.308594 399.148438 230.289062 M 421.070312 229.464844 L 416.75 231.320312 L 412.394531 229.789062 L 421.070312 229.464844 M 361.585938 233.234375 L 353.015625 237.921875 L 346.335938 239.027344 L 349.171875 235.324219 L 361.585938 233.234375 M 650.96875 196.371094 L 659.476562 220.496094 L 667.984375 244.617188 C 667.183594 241.058594 666.382812 237.5 665.582031 233.9375 L 650.96875 196.371094 M 580.195312 145.191406 L 610.171875 180.433594 L 627.640625 213.863281 L 639.144531 239.058594 L 643.394531 244.828125 L 643.597656 245.421875 L 641.09375 231.582031 L 616.035156 187.222656 L 580.195312 145.191406 M 333.8125 245.132812 L 330.972656 248.761719 L 330.8125 248.882812 L 325.375 253.941406 L 333.8125 245.132812 M 234.144531 194.03125 L 229.855469 199.550781 L 238.605469 195.132812 L 225.855469 204.699219 L 219.3125 213.113281 L 214.988281 222.875 L 192.503906 250.992188 L 183.722656 267.160156 L 186.40625 258.875 L 213.941406 219.402344 L 183.289062 260.683594 L 205.019531 222.089844 L 221.171875 201.472656 L 234.144531 194.03125 M 630.464844 245.113281 L 631.390625 249.457031 L 640.605469 275.394531 L 637.738281 260.792969 L 631.722656 246.488281 L 630.464844 245.113281 M 543.886719 206.414062 L 549.320312 211.371094 L 571.867188 248.101562 L 575.449219 258.347656 L 549.921875 216.34375 L 580.574219 272.996094 L 582.195312 277.625 L 568.402344 258.183594 L 549.230469 217.230469 L 543.542969 211.640625 L 549.625 215.859375 L 543.886719 206.414062 M 640.605469 275.394531 L 640.792969 276.335938 L 640.976562 277.28125 L 642.863281 281.742188 C 642.109375 279.628906 641.359375 277.511719 640.605469 275.394531 M 633.589844 259.789062 L 634.980469 266.3125 L 636.367188 272.832031 L 642.320312 284.113281 C 641.875 281.835938 641.425781 279.558594 640.976562 277.28125 L 633.589844 259.789062 M 182.238281 262.550781 L 179.515625 271.226562 L 176.796875 279.90625 C 175.84375 281.660156 174.890625 283.414062 173.9375 285.171875 L 177.421875 271.105469 L 182.238281 262.550781 M 152.546875 284.558594 L 152.347656 285.328125 L 152.144531 286.097656 L 151.554688 287.164062 L 152.546875 284.558594 M 642.863281 281.742188 L 645.175781 288.257812 C 645.015625 287.535156 644.859375 286.808594 644.699219 286.085938 L 642.863281 281.742188 M 646.59375 297.609375 L 646.464844 300.496094 L 646.339844 303.378906 L 647.035156 305.140625 C 646.886719 302.632812 646.742188 300.121094 646.59375 297.609375 M 296.316406 307.144531 L 296.175781 307.574219 L 296.035156 308 C 296.019531 307.898438 296.003906 307.800781 295.988281 307.699219 C 296.097656 307.515625 296.207031 307.332031 296.316406 307.144531 M 303.414062 295.238281 L 297.648438 318.527344 L 296.847656 313.300781 L 302.363281 297.003906 L 303.414062 295.238281 M 297.050781 294.992188 L 293.554688 308.613281 L 290.0625 322.230469 L 294.253906 299.460938 L 297.050781 294.992188 M 647.035156 305.140625 L 647.3125 309.894531 L 647.59375 314.644531 L 652.214844 325.804688 L 649.105469 310.371094 L 647.035156 305.140625 M 586.550781 294.371094 L 588.570312 303.933594 L 590.585938 313.496094 C 590.003906 311.949219 589.421875 310.402344 588.839844 308.851562 L 590.863281 329.925781 C 589.425781 318.074219 587.988281 306.222656 586.550781 294.371094 M 590.601562 283.515625 L 601.289062 317.429688 L 603.511719 331.789062 L 593.753906 296.109375 L 590.601562 283.515625 M 646.011719 310.824219 L 645.679688 318.292969 L 645.609375 324.058594 L 648.855469 336.179688 L 647.59375 314.644531 L 646.011719 310.824219 M 89.832031 276.367188 L 89.664062 281.527344 L 89.492188 286.6875 C 89.875 289.871094 90.253906 293.054688 90.636719 296.234375 C 85.152344 311.613281 79.664062 326.988281 74.179688 342.367188 L 89.832031 276.367188 M 667.984375 244.617188 L 679.734375 296.890625 L 685.71875 350.871094 L 681.4375 289.1875 L 676.335938 273.328125 L 675.503906 265.941406 L 667.984375 244.617188 M 375.03125 352.21875 L 374.984375 353.125 L 374.941406 353.289062 C 374.972656 352.933594 375 352.574219 375.03125 352.21875 M 596.289062 354.914062 L 596.433594 356.191406 L 596.574219 357.46875 L 596.363281 359.253906 L 595.925781 356.929688 L 596.289062 354.914062 M 397.46875 357.105469 L 396.105469 360.875 L 394.746094 364.640625 L 394.648438 361.960938 C 395.585938 360.34375 396.527344 358.722656 397.46875 357.105469 M 595.339844 360.191406 L 595.519531 366.445312 L 595.40625 367.398438 C 595.222656 365.886719 595.039062 364.378906 594.855469 362.871094 L 595.339844 360.191406 M 667.792969 343.277344 L 668.144531 356.34375 L 668.492188 369.410156 L 669.410156 358.296875 C 668.871094 353.289062 668.332031 348.285156 667.792969 343.277344 M 606.199219 349.152344 L 609.300781 369.207031 C 609.152344 371.125 609.003906 373.046875 608.855469 374.964844 L 606.199219 349.152344 M 398.566406 373.738281 L 396.929688 376.550781 L 395.292969 379.367188 L 395.144531 375.40625 C 396.285156 374.851562 397.425781 374.292969 398.566406 373.738281 M 511.582031 378.328125 L 511.660156 378.625 L 511.136719 379.964844 C 511.285156 379.421875 511.433594 378.875 511.582031 378.328125 M 594.035156 367.414062 L 595.097656 370.015625 L 593.730469 381.609375 C 593.546875 379.652344 593.363281 377.695312 593.179688 375.734375 C 593.152344 374.691406 593.128906 373.644531 593.101562 372.601562 L 594.035156 367.414062 M 597.902344 376.90625 L 598.6875 378.835938 L 598.789062 380.203125 L 597.707031 386.390625 L 597.359375 383.5 L 598.039062 380.855469 C 597.992188 379.539062 597.949219 378.222656 597.902344 376.90625 M 390.652344 374.019531 L 393.15625 375.632812 L 393.796875 381.941406 L 388.320312 391.359375 L 390.652344 374.019531 M 663.808594 375.632812 L 663.214844 379.457031 L 662.621094 383.277344 C 662.097656 389.445312 661.574219 395.613281 661.054688 401.785156 C 662.203125 398.179688 663.347656 394.574219 664.496094 390.972656 L 663.808594 375.632812 M 586.660156 405.332031 L 586.652344 405.402344 C 586.636719 405.453125 586.621094 405.5 586.605469 405.546875 C 586.625 405.476562 586.644531 405.40625 586.660156 405.332031 M 596.140625 388.222656 L 596.929688 415.777344 C 596.226562 408.292969 595.527344 400.808594 594.828125 393.324219 C 595.265625 391.625 595.703125 389.921875 596.140625 388.222656 M 278.117188 433.5625 L 278.65625 435.605469 L 279.191406 437.652344 C 278.992188 437.511719 278.792969 437.371094 278.59375 437.230469 C 278.433594 436.007812 278.277344 434.785156 278.117188 433.5625 M 285.664062 440.71875 L 286.671875 442.160156 L 287.683594 443.605469 L 285.992188 442.417969 C 285.882812 441.851562 285.773438 441.285156 285.664062 440.71875 M 676.371094 365.3125 L 671.753906 374.347656 L 669.246094 397.359375 L 669.542969 408.414062 L 667.300781 415.191406 L 666.246094 424.859375 L 663.351562 446.042969 L 670.625 424.378906 L 674.988281 419.4375 L 676.371094 365.3125 M 92.972656 339.8125 L 87.179688 378.648438 L 87.625 393.480469 L 100.894531 447.976562 L 95.453125 416.300781 L 90.476562 382.273438 L 92.972656 339.8125 M 269.664062 439.097656 L 272.21875 442.292969 L 274.238281 448.507812 L 272.359375 447.21875 L 269.664062 439.097656 M 280.601562 452.773438 L 280.789062 453.007812 L 280.617188 452.890625 L 280.601562 452.773438 M 279.816406 446.703125 L 282.121094 448.800781 L 283.765625 455.054688 L 281.679688 453.617188 L 280.496094 451.957031 L 279.816406 446.703125 M 292.984375 458.6875 L 293.515625 459.171875 L 294.046875 459.652344 L 295.488281 463.105469 L 294.8125 462.640625 L 292.984375 458.6875 M 154.410156 463.085938 L 154.460938 463.191406 L 154.460938 463.195312 L 154.476562 463.277344 L 154.476562 463.28125 L 154.410156 463.085938 M 91.910156 434.71875 L 99.609375 451.886719 L 107.304688 469.050781 C 107.375 469.121094 107.445312 469.191406 107.515625 469.261719 L 91.910156 434.71875 M 637.617188 430.847656 L 634.574219 438.398438 L 624.679688 459.316406 L 621.53125 469.820312 L 625.742188 471.011719 L 637.617188 430.847656 M 563.292969 457.804688 L 561.207031 462.582031 L 559.121094 467.363281 L 553.105469 478.042969 C 556.503906 471.296875 559.898438 464.550781 563.292969 457.804688 M 668.492188 369.410156 L 664.015625 423.613281 L 654.042969 449.925781 L 643.015625 481.820312 L 647.464844 475.164062 L 667.300781 415.191406 L 669.246094 397.359375 L 668.492188 369.410156 M 155.976562 457.96875 L 163.195312 471.441406 L 170.410156 484.917969 C 168.902344 483 167.390625 481.078125 165.878906 479.15625 L 155.976562 457.96875 M 281.789062 486.679688 L 294.019531 498.066406 L 291.710938 497.863281 L 284.644531 491.382812 L 281.789062 486.679688 M 278.433594 465.511719 L 280.011719 466.273438 L 284.207031 479.183594 L 299.429688 498.550781 L 298.007812 498.425781 L 284.605469 484.089844 L 278.433594 465.511719 M 296.652344 493.683594 L 299.445312 496.429688 L 301.210938 498.710938 L 300.371094 498.636719 L 296.652344 493.683594 M 334.199219 498.632812 L 339.320312 501.335938 L 336.300781 501.816406 L 334.199219 498.632812 M 303.511719 501.835938 L 303.578125 501.847656 L 303.644531 501.863281 L 303.75 501.996094 L 303.511719 501.835938 M 643.015625 481.820312 L 639.789062 486.644531 L 636.566406 491.472656 C 635.984375 496.152344 635.402344 500.835938 634.820312 505.519531 C 637.550781 497.621094 640.285156 489.71875 643.015625 481.820312 M 343.640625 504.878906 L 345.3125 506.898438 L 344.363281 506.953125 L 338.921875 505.789062 L 338.902344 505.761719 L 343.640625 504.878906 M 170.421875 498.539062 L 172.230469 500.828125 L 176.183594 509.523438 L 170.421875 498.539062 M 608.035156 472.527344 L 585.960938 510.292969 L 583.730469 511.390625 L 587.890625 502.984375 L 608.035156 472.527344 M 313.734375 516.433594 L 317.933594 520.34375 L 321.1875 524.554688 L 320.613281 524.367188 L 317.664062 521.664062 L 313.734375 516.433594 M 604.683594 525.050781 L 604.082031 525.972656 C 604.152344 525.914062 604.222656 525.851562 604.292969 525.789062 L 604.292969 525.792969 L 604.683594 525.050781 M 189.910156 524.425781 L 192.019531 525.878906 L 192.246094 526.167969 C 191.46875 525.585938 190.6875 525.007812 189.910156 524.425781 M 581.695312 535.074219 L 579.449219 537.632812 L 579.140625 537.8125 L 578.9375 537.449219 L 581.695312 535.074219 M 632.179688 473.105469 L 604.683594 525.050781 L 623.179688 496.769531 L 615.234375 516.335938 L 604.292969 525.789062 L 599.292969 535.238281 L 596.234375 537.972656 L 604.082031 525.972656 L 601.210938 528.457031 L 632.179688 473.105469 M 558.984375 545.492188 L 557.84375 546.964844 L 556.703125 548.433594 C 556.644531 548.464844 556.589844 548.496094 556.53125 548.527344 L 558.984375 545.492188 M 223.570312 549.589844 L 227.507812 551.558594 L 228.03125 552.132812 L 224.355469 550.175781 L 223.570312 549.589844 M 560.460938 553.378906 L 557.046875 556.746094 L 553.636719 560.113281 C 553.101562 560.292969 552.570312 560.46875 552.035156 560.644531 C 554.84375 558.222656 557.652344 555.800781 560.460938 553.378906 M 230.609375 560.089844 L 241.300781 566.757812 L 241.585938 567.074219 L 230.65625 560.148438 L 230.609375 560.089844 M 488.308594 570.359375 L 465.300781 582.410156 L 473.882812 577.335938 L 488.308594 570.359375 M 592.511719 522.71875 L 586.027344 530.125 L 588.722656 525.457031 L 577.964844 535.703125 L 575.945312 532.070312 L 575.289062 532.679688 L 574.921875 536.410156 L 565.203125 547.855469 L 551.636719 560.78125 L 544.78125 563.0625 L 543.578125 564.550781 L 544.679688 563.09375 L 539.925781 564.675781 L 529.925781 571.242188 L 513.84375 584.09375 L 536.617188 573.941406 L 549.300781 563.003906 L 545.746094 566.390625 L 572.621094 545.433594 L 561.660156 557.949219 L 568.25 553.4375 L 558.367188 565.292969 L 580.726562 539.113281 L 584.300781 536.351562 L 593.277344 524.863281 L 592.511719 522.71875 M 681.445312 456.984375 L 654.640625 516.90625 L 641.199219 538.773438 L 640.261719 550.675781 L 606.171875 586.070312 L 615.535156 581.511719 L 652.566406 540.363281 L 673.355469 508.363281 L 664.332031 517.886719 L 681.445312 456.984375 M 504.300781 579.40625 L 502.738281 580.886719 L 492.121094 586.210938 L 489.742188 586.371094 L 504.300781 579.40625 M 140.214844 557.441406 L 141.710938 562.554688 L 143.210938 567.671875 L 167.628906 589.363281 C 167.03125 587.945312 166.429688 586.53125 165.832031 585.113281 C 157.292969 575.890625 148.753906 566.664062 140.214844 557.441406 M 444.15625 587.8125 L 452.164062 590.039062 L 447.246094 592.085938 L 443.207031 591.054688 L 438.339844 591.109375 L 436.453125 590.527344 L 444.15625 587.8125 M 269.488281 597.667969 L 269.636719 597.734375 L 269.785156 597.796875 L 269.785156 597.800781 L 269.78125 597.796875 L 269.488281 597.667969 M 472.746094 595.917969 L 462.429688 601.089844 L 450.929688 600.957031 L 454.890625 599.59375 L 472.746094 595.917969 M 422.703125 597.34375 L 431.113281 598.414062 L 419.660156 601.210938 L 408.300781 600.449219 L 415.578125 597.882812 L 422.703125 597.34375 M 602.148438 566.988281 L 598.46875 568.808594 L 594.785156 570.632812 L 553.914062 608.496094 C 569.992188 594.660156 586.070312 580.824219 602.148438 566.988281 M 680.589844 518.6875 L 667.292969 536.582031 L 653.996094 554.472656 L 600.96875 608.773438 L 643.417969 571.414062 L 680.589844 518.6875 M 424.394531 610.074219 L 424.5 610.078125 L 424.605469 610.085938 C 424.496094 610.097656 424.386719 610.105469 424.277344 610.113281 L 424.394531 610.074219 M 600.96875 608.773438 L 598.695312 610.773438 C 598.9375 610.632812 599.179688 610.492188 599.421875 610.355469 C 599.9375 609.828125 600.453125 609.300781 600.96875 608.773438 M 107.515625 469.261719 L 120.351562 497.6875 L 164.796875 555.914062 L 199.398438 588.347656 L 229.824219 608.207031 L 242.558594 612.042969 L 220.46875 597.011719 L 201.613281 579.652344 L 184.199219 569 L 134.945312 511.550781 L 109.683594 471.433594 L 107.515625 469.261719 M 266.769531 594.320312 L 269.78125 597.796875 L 282.246094 603.242188 L 281.78125 603.109375 L 269.785156 597.796875 L 269.921875 597.960938 L 278.003906 602.007812 L 271.890625 600.230469 L 273.832031 602.472656 L 301.714844 613.1875 L 305.832031 613.75 L 297.265625 609.957031 L 297.535156 609.921875 L 306.496094 613.839844 L 308.902344 614.167969 L 300.496094 609.558594 L 302.933594 609.257812 L 296.570312 607.410156 L 290.726562 604.207031 L 266.769531 594.320312 M 339.246094 618.234375 L 339.601562 618.347656 L 338.890625 618.25 C 339.007812 618.246094 339.125 618.238281 339.246094 618.234375 M 339.761719 618.214844 L 386.472656 619.644531 L 389.5 619.945312 L 360.425781 621.183594 L 342.3125 618.714844 L 339.628906 618.21875 L 339.761719 618.214844 M 215.316406 567.949219 L 264.246094 598.007812 L 271.890625 600.230469 L 269.921875 597.960938 L 243.449219 584.695312 L 266.769531 594.320312 L 261.429688 588.148438 L 290.726562 604.207031 L 302.933594 609.257812 L 329.421875 616.960938 L 308.902344 614.167969 L 315.425781 617.738281 L 306.496094 613.839844 L 305.832031 613.75 L 323.390625 621.519531 L 301.714844 613.1875 L 290.554688 611.667969 L 238.535156 585.53125 L 215.316406 567.949219 M 522.691406 607.890625 L 497.175781 619.636719 L 495.894531 622.101562 L 474.773438 625.433594 L 481.65625 620.78125 L 497.855469 615.9375 L 501.210938 613.972656 L 522.691406 607.890625 M 554.824219 618.820312 L 538.757812 625.441406 L 522.695312 632.0625 L 533.101562 629.105469 C 540.34375 625.675781 547.582031 622.25 554.824219 618.820312 M 328.859375 623.617188 L 399.683594 637.320312 L 420.589844 640.347656 L 404.53125 642.582031 L 348.417969 631.132812 L 328.859375 623.617188 M 598.695312 610.773438 L 569.847656 627.324219 L 541 643.878906 L 583.808594 623.871094 L 598.695312 610.773438 M 354.726562 85.941406 L 311.847656 102.746094 C 310.59375 101.367188 292.671875 107.953125 258.078125 122.503906 L 240.953125 134.785156 L 256.222656 127.914062 C 231.273438 141.726562 215.898438 151.394531 210.089844 156.917969 L 164.332031 205.464844 L 194.070312 169.628906 L 178.027344 185.195312 L 187.433594 173.644531 L 179.839844 176.023438 L 219.109375 143.054688 L 208.082031 154.367188 L 223.1875 142.78125 C 227.890625 142.28125 237.578125 136.304688 252.253906 124.851562 L 239.058594 130.160156 L 244.585938 122.4375 L 215.847656 141.351562 L 171.855469 182.5625 L 137.414062 230.398438 L 107.664062 304.277344 L 127.699219 242.785156 L 124.34375 242.226562 L 115.835938 259.046875 L 102.984375 306.117188 L 94.398438 365.800781 L 100.917969 429.664062 L 127.722656 487.972656 L 164.46875 541.015625 L 211.191406 584.632812 L 266.910156 618.316406 L 328.769531 638.324219 L 391.722656 643.945312 C 372.652344 645.082031 350.238281 644.789062 324.488281 643.058594 L 392.464844 647.703125 L 449.824219 643.074219 L 459.773438 637.988281 L 539.144531 611.929688 L 594.785156 570.632812 L 638.648438 530.003906 L 661.433594 482.492188 L 609.171875 546.609375 L 562.667969 588.496094 L 550.25 590.769531 L 584.9375 566.699219 L 609.867188 542.90625 C 612.554688 536.851562 612.949219 533.890625 611.046875 534.027344 L 604.335938 539.6875 L 636.5625 491.472656 L 657.144531 436.308594 L 663.097656 409.527344 L 660.222656 411.59375 L 661.054688 401.785156 L 658.484375 409.863281 L 662.621094 383.277344 L 663.621094 371.4375 L 663.808594 375.632812 L 666.050781 361.238281 C 664.320312 351.125 663.699219 333.992188 664.183594 309.832031 L 667.792969 343.277344 L 666.976562 312.914062 L 663.296875 301.59375 L 663.402344 302.601562 L 643.597656 245.421875 L 644.613281 251.03125 L 639.144531 239.058594 L 614.546875 205.640625 L 631.722656 246.488281 L 635.800781 250.949219 L 644.699219 286.085938 L 661.097656 322.15625 L 661.953125 334.183594 L 657.59375 343.023438 L 654.699219 379.933594 C 655.285156 360.179688 653.339844 345.597656 648.855469 336.179688 L 650.035156 356.328125 L 641.800781 416.6875 L 637.617188 430.847656 L 648.65625 403.453125 L 629.203125 464.507812 L 633.757812 457.578125 L 654.320312 384.730469 L 653.523438 394.886719 L 635.675781 458.121094 L 603.847656 520.105469 L 611.800781 501.171875 L 593.277344 524.863281 L 594.601562 528.578125 L 584.300781 536.351562 L 568.445312 556.628906 C 559.519531 565.207031 554.625 568.652344 553.761719 566.964844 L 561.660156 557.949219 L 518.941406 587.199219 L 501.910156 592.238281 L 542.707031 561.027344 C 545.757812 560.03125 548.15625 558.417969 549.902344 556.191406 L 544.78125 563.0625 L 551.625 554.597656 L 575.285156 532.679688 L 575.4375 531.152344 L 575.945312 532.070312 L 595.21875 514.21875 L 588.722656 525.457031 C 590.128906 525.441406 593.777344 521.804688 599.664062 514.550781 L 620.371094 470.691406 L 614.46875 480.90625 C 619.710938 475.90625 628.082031 452.117188 639.589844 409.535156 L 644.96875 375.402344 L 645.609375 324.058594 L 636.957031 291.765625 C 640.441406 297.378906 643.460938 303.730469 646.011719 310.824219 L 646.339844 303.378906 L 624.222656 247.480469 L 613.828125 237.8125 L 588.566406 203.09375 L 593.351562 221.457031 L 588.492188 213.222656 C 587.960938 212.539062 588.363281 212.910156 589.695312 214.332031 C 588.664062 213.628906 586.410156 208.851562 582.929688 200.007812 C 574.242188 193.824219 564.417969 183.011719 553.449219 167.566406 L 521.855469 142.886719 L 523.261719 141.507812 L 493.621094 124.761719 L 491.457031 127.546875 L 479.449219 125.023438 L 421.421875 108.957031 L 416.972656 106.464844 L 399.941406 104.242188 L 363.488281 109.191406 L 392.191406 103.234375 L 370.386719 100.390625 L 394.996094 97.019531 C 410.410156 101.984375 418.585938 103.433594 419.527344 101.359375 L 396.789062 96.773438 L 404.910156 95.660156 L 481.4375 113.417969 L 552.707031 153.355469 L 570.589844 169.855469 L 568.988281 163.296875 L 594.773438 193.398438 L 580.488281 172.199219 L 587.359375 178.488281 C 595.976562 195.042969 606.929688 211.597656 620.226562 228.15625 L 633.589844 259.789062 L 631.390625 249.457031 L 624.527344 230.140625 L 590.847656 176.074219 L 603.480469 190.605469 L 583.089844 163.617188 C 578.152344 161.472656 578.003906 162.480469 582.644531 166.640625 L 561.554688 150.054688 L 583.929688 171.167969 L 575.550781 165.464844 L 550.839844 144.933594 L 554.554688 144.550781 L 528.132812 123.773438 L 451.433594 90.648438 L 354.726562 85.941406 M 522.695312 632.0625 L 463.265625 648.9375 L 442.132812 654.792969 L 441.996094 656.316406 L 494.421875 648.699219 L 481.570312 649.007812 L 522.695312 632.0625 M 299.421875 637.367188 L 298.667969 638.691406 L 297.914062 640.011719 L 361.402344 658.921875 L 367.882812 657.679688 L 299.421875 637.367188 M 321.472656 68.523438 L 296.203125 70.863281 L 244.574219 93.148438 L 188.441406 127.890625 L 175.496094 132.9375 L 129.9375 185.003906 L 147.25 160.035156 C 127.679688 182.003906 114.242188 199.152344 106.941406 211.480469 L 86.25 264.007812 L 67.476562 336.671875 L 64.0625 412.199219 L 74.390625 441.007812 L 76.457031 437.773438 L 73.722656 419.335938 L 90.324219 464.046875 L 118.199219 513.464844 L 157.355469 567.246094 C 122.296875 523.320312 102.5 496.941406 97.960938 488.113281 L 135.902344 545.175781 L 177.804688 589.292969 C 194.816406 600.03125 211.972656 611.847656 229.273438 624.742188 L 278.378906 645.921875 L 339.914062 662.554688 L 352.46875 663.679688 L 314.660156 654.355469 L 248.5625 631.246094 L 187.105469 590.96875 L 139.652344 542.085938 L 133.699219 532.332031 L 183.410156 584.933594 L 234.382812 618.917969 L 194.84375 591.128906 L 147.058594 545.613281 L 121.488281 508.710938 L 89.292969 448.226562 L 77.816406 371.449219 L 86.960938 318.277344 L 98.152344 274.371094 L 131.183594 203.789062 L 143.777344 188.644531 L 108.164062 253.195312 L 92.726562 298.425781 L 112.683594 256.933594 L 108.480469 260.015625 L 135.351562 204.550781 L 188.164062 143.242188 L 236.875 114.921875 L 296.320312 87.707031 L 242.402344 108.007812 L 292.070312 87.007812 L 349.84375 75.402344 L 410.257812 78.855469 L 412.914062 77.035156 L 443.953125 83.917969 L 415.265625 74.261719 L 358.507812 70.246094 C 313.386719 74.898438 287.585938 78.515625 281.109375 81.105469 L 321.472656 68.523438 M 504.203125 663.246094 L 497.5 664.351562 L 424.496094 674.019531 L 358.777344 677.285156 L 438.160156 675.5625 L 483.238281 667.734375 L 502.070312 665.402344 L 504.203125 663.246094 M 473.96875 678.640625 L 399.078125 686.054688 L 435.808594 684.757812 L 450.550781 683.945312 L 473.96875 678.640625 M 399.078125 686.054688 L 397.78125 686.101562 L 396.488281 686.148438 L 397.480469 686.214844 C 398.011719 686.160156 398.542969 686.109375 399.078125 686.054688 M 291.390625 676.859375 L 363.003906 687.332031 L 396.488281 686.148438 L 327.609375 681.527344 L 291.390625 676.859375 " fill-opacity="1" fill-rule="nonzero"/></g></svg>